<?xml version="1.0" encoding="utf-8"?>
<!DOCTYPE svg PUBLIC "-//W3C//DTD SVG 1.1//EN" "http://www.w3.org/Graphics/SVG/1.1/DTD/svg11.dtd">
<svg xmlns:svg="http://www.w3.org/2000/svg" xmlns="http://www.w3.org/2000/svg" xmlns:xlink="http://www.w3.org/1999/xlink" version="1.1" id="Layer_1" x="0px" y="0px" width="582px" height="244px" viewBox="127.821 177.763 582 244" enable-background="new 127.821 177.763 582 244" xml:space="preserve">
	<g>
		<path id="path3550" fill="#BC2025" d="M464.302,323.245h-0.012c-1.07,0-2.015,0.354-2.902,1.07c-0.66,0.523-1.115,1.23-1.479,2.016   h0.046c0.364-0.784,0.819-1.491,1.468-2.016C462.31,323.6,463.255,323.258,464.302,323.245z"/>
		<path id="path3554" fill="#BC2025" d="M464.336,323.245c-0.011,0-0.021,0-0.033,0c1.104,0.013,1.832,0.389,2.322,1.195   c0.216,0.342,0.329,0.854,0.329,1.503c0,0.114-0.022,0.263-0.034,0.388h0.046c0-0.125,0.022-0.272,0.022-0.388   c0-0.647-0.103-1.161-0.318-1.503C466.18,323.622,465.44,323.245,464.336,323.245z"/>
		<g id="g3556" transform="matrix(0.385154,0,0,0.385154,330.53849,1073.2023)">
			<g id="g3558" transform="matrix(1.705222,0,0,1.705222,-769.6823,-728.9956)">
				<path id="path3560" fill="#673466" d="M149.893-571.138h12.93l5.806-24.265h21.006l2.705-10.399h-21.093l3.5-15.599h22.446     l2.703-12.132h-35.443L149.893-571.138z"/>
			</g>
			<g id="g3562" transform="matrix(1.705222,0,0,1.705222,-725.4318,-711.9434)">
				<path id="path3564" fill="#673466" d="M181.937-581.138l3.882-16.292c2.044-8.822,6.36-16.639,14.524-16.639     c0.727,0,1.438,0.364,1.975,0.451l3.155-12.496c-0.729,0-1.526-0.085-2.427-0.085c-6.016,0-11.058,4.229-14.42,10.294h-0.346     c0.503-2.963,0.935-5.771,1.265-8.563h-11.144c-0.642,3.607-1.63,10.661-3.137,17.022l-6.343,26.308H181.937L181.937-581.138z"/>
			</g>
			<g id="g3566" transform="matrix(1.705222,0,0,1.705222,-690.253,-711.9434)">
				<path id="path3568" fill="#673466" d="M218.814-592.837c-3.588,1.75-7.677,1.3-12.444,1.3c-3.76,0-6.673-0.659-8.267-1.94     c-0.831-1.404-1.179-3.588-1.109-4.992c17.557,0.468,28.632-3.588,29.187-14.68c0.416-8.371-5.702-13.051-14.593-13.051     c-15.876,0-26.275,14.004-26.952,27.488c-0.589,11.767,5.512,17.574,18.094,17.574c4.834,0,11.247-0.555,16.499-2.131     L218.814-592.837z M214.065-613.15c-0.207,4.125-5.304,4.367-15.339,4.281c1.091-3.622,4.767-6.933,10.78-6.933     C212.47-615.804,214.169-614.677,214.065-613.15z"/>
			</g>
			<g id="g3570" transform="matrix(1.705222,0,0,1.705222,-645.0305,-711.9434)">
				<path id="path3572" fill="#673466" d="M238.242-592.837c-3.588,1.75-7.677,1.3-12.428,1.3c-3.778,0-6.673-0.659-8.267-1.94     c-0.833-1.404-1.194-3.588-1.127-4.992c17.575,0.468,28.633-3.588,29.204-14.68c0.416-8.371-5.702-13.051-14.593-13.051     c-15.895,0-26.293,14.004-26.971,27.488c-0.571,11.767,5.531,17.574,18.097,17.574c4.852,0,11.265-0.555,16.517-2.131     L238.242-592.837z M233.509-613.15c-0.207,4.125-5.302,4.367-15.355,4.281c1.109-3.622,4.767-6.933,10.78-6.933     C231.897-615.804,233.613-614.677,233.509-613.15z"/>
			</g>
			<g id="g3574" transform="matrix(1.705222,0,0,1.705222,-583.796,-711.9434)">
				<path id="path3576" fill="#673466" d="M269.232-581.138c0.104-5.494,1.422-14.126,2.791-19.792l5.564-23.538     c-3.536-1.195-9.048-1.732-14.352-1.732c-21.526,0-32.202,15.944-32.948,30.885c-0.467,9.376,4.611,14.178,12.514,14.178     c5.114,0,10.886-2.479,15.375-9.93h0.19c-0.346,3.588-0.763,7.072-0.989,9.93H269.232L269.232-581.138z M260.342-605.889     c-2.531,11.022-7.696,14.35-11.544,14.35c-3.585,0-5.146-2.547-4.94-6.257c0.416-8.37,7.038-18.008,15.391-18.008     c1.352,0,2.409-0.241,3.398-0.485L260.342-605.889z"/>
			</g>
			<g id="g3578" transform="matrix(1.705222,0,0,1.705222,-536.6807,-711.9434)">
				<path id="path3580" fill="#673466" d="M250.077-583.184c2.498,1.94,7.73,1.958,13.19,2.045     c11.665,0.088,20.469-5.008,20.989-14.368c0.294-6.239-4.541-9.931-9.272-12.41c-3.414-1.646-5.131-3.224-5.044-5.061     c0.12-2.477,2.443-2.825,5.857-2.825c3.848,0,6.933,0.468,8.701,0.815l3.502-9.393c-1.994-1.197-5.98-1.82-11.094-1.82     c-11.317,0-19.602,5.979-20.07,15.061c-0.277,5.616,3.762,9.394,8.649,11.959c3.952,2.028,5.304,3.588,5.2,5.79     c-0.122,2.217-2.098,1.853-5.684,1.853c-4.211,0-8.874-0.555-11.336-0.934L250.077-583.184z"/>
			</g>
			<g id="g3582" transform="matrix(1.705222,0,0,1.705222,-481.3463,-730.7008)">
				<path id="path3584" fill="#673466" d="M286.784-570.138l10.486-43.33h-12.844l-10.556,43.33H286.784z M292.797-618.668     c4.403,0,8.319-3.64,8.562-9.879c0.208-4.23-2.528-5.72-6.568-5.72c-4.212,0-8.061,2.739-8.285,6.828     C286.297-623.313,289.036-618.668,292.797-618.668z"/>
			</g>
			<g id="g3586" transform="matrix(1.705222,0,0,1.705222,-456.9787,-710.7668)">
				<path id="path3588" fill="#673466" d="M297.277-581.828l4.575-19.516c2.375-9.931,7.488-13.415,11.699-13.415     c3.328,0,4.299,1.421,4.144,3.484c-0.086,1.664-0.346,3.414-0.694,4.974l-5.823,24.473h12.929l6.136-25.67     c0.467-2.218,0.989-5.527,1.093-7.539c0.381-7.817-3.518-10.66-10.695-10.66c-5.753,0-11.353,2.669-15.772,8.458h-0.174     l1.179-7.921H294.47c-0.746,3.71-1.7,8.199-3.051,13.433l-7.072,29.897h12.93V-581.828z"/>
			</g>
			<g id="g3590" transform="matrix(1.705222,0,0,1.705222,-389.5201,-728.9956)">
				<path id="path3592" fill="#673466" d="M313.355-571.138h12.929l5.824-24.265h20.988l2.706-10.399h-21.093l3.5-15.599h22.445     l2.705-12.132h-35.445L313.355-571.138z"/>
			</g>
			<g id="g3594" transform="matrix(1.705222,0,0,1.705222,-345.2696,-711.9434)">
				<path id="path3596" fill="#673466" d="M345.396-581.138l3.882-16.292c2.046-8.822,6.361-16.639,14.524-16.639     c0.729,0,1.438,0.364,1.976,0.451l3.154-12.496c-0.729,0-1.526-0.085-2.427-0.085c-6.015,0-11.058,4.229-14.42,10.294h-0.345     c0.503-2.963,0.934-5.771,1.264-8.563h-11.143c-0.624,3.607-1.63,10.661-3.137,17.022l-6.345,26.308H345.396L345.396-581.138z"/>
			</g>
			<g id="g3598" transform="matrix(1.705222,0,0,1.705222,-310.0908,-711.9434)">
				<path id="path3600" fill="#673466" d="M382.273-592.837c-3.588,1.75-7.677,1.3-12.444,1.3c-3.76,0-6.673-0.659-8.267-1.94     c-0.833-1.404-1.179-3.588-1.109-4.992c17.557,0.468,28.632-3.588,29.188-14.68c0.416-8.371-5.702-13.051-14.594-13.051     c-15.876,0-26.274,14.004-26.952,27.488c-0.589,11.767,5.528,17.574,18.094,17.574c4.835,0,11.266-0.555,16.5-2.131     L382.273-592.837z M377.526-613.15c-0.208,4.125-5.304,4.367-15.339,4.281c1.091-3.622,4.766-6.933,10.78-6.933     C375.93-615.804,377.63-614.677,377.526-613.15z"/>
			</g>
			<g id="g3602" transform="matrix(1.705222,0,0,1.705222,-264.8684,-711.9434)">
				<path id="path3604" fill="#673466" d="M401.7-592.837c-3.586,1.75-7.677,1.3-12.426,1.3c-3.778,0-6.673-0.659-8.267-1.94     c-0.833-1.404-1.197-3.588-1.127-4.992c17.575,0.468,28.632-3.588,29.204-14.68c0.416-8.371-5.702-13.051-14.594-13.051     c-15.894,0-26.292,14.004-26.968,27.488c-0.571,11.767,5.528,17.574,18.094,17.574c4.853,0,11.266-0.555,16.518-2.131     L401.7-592.837z M396.969-613.15c-0.208,4.125-5.304,4.367-15.355,4.281c1.109-3.622,4.766-6.933,10.78-6.933     C395.357-615.804,397.073-614.677,396.969-613.15z"/>
			</g>
			<g id="g3606" transform="matrix(1.705222,0,0,1.705222,-219.8846,-730.7008)">
				<path id="path3608" fill="#673466" d="M426.693-634.267l-4.87,19.688c-1.768-0.727-4.074-0.623-5.876-0.623     c-16.604,0-28.354,14.212-29.133,29.603c-0.52,10.85,5.268,15.459,12.719,15.459c5.219,0,10.712-2.305,14.872-8.267h0.172     l-0.987,8.267h11.751c0.537-5.2,1.664-11.387,2.929-17.037l11.249-47.09H426.693z M416.572-591.942     c-2.028,8.545-6.812,11.403-10.59,11.403c-3.762,0-5.858-2.617-5.598-7.277c0.433-8.633,6.361-16.986,14.074-16.986     c2.167,0,4.021,0.33,5.045,0.815L416.572-591.942z"/>
			</g>
			<g id="g3610" transform="matrix(1.705222,0,0,1.705222,-169.2225,-711.9434)">
				<path id="path3612" fill="#673466" d="M426.466-581.138c15.079,0,26.708-11.421,27.523-26.968     c0.503-10.295-5.909-18.094-17.748-18.094c-15.633,0-26.848,12.652-27.627,27.939     C408.076-587.135,415.251-581.138,426.466-581.138z M428.492-591.539c-4.401,0-6.828-2.806-6.568-7.002     c0.346-6.984,4.661-17.263,12.098-17.263c5.13,0,6.706,3.934,6.498,7.8C440.139-600.376,435.494-591.539,428.492-591.539z"/>
			</g>
			<g id="g3614" transform="matrix(1.705222,0,0,1.705222,-120.5213,-711.9434)">
				<path id="path3616" fill="#673466" d="M441.496-581.138l4.679-19.792c1.958-8.822,6.846-14.872,11.231-14.872     c3.155,0,4.021,2.306,3.866,5.322c-0.088,1.56-0.434,3.31-0.798,5.044l-5.788,24.299h12.48l4.679-19.88     c2.149-9.097,6.76-14.783,11.058-14.783c2.963,0,4.195,2.116,4.055,5.13c-0.086,1.75-0.451,3.674-0.901,5.424l-5.616,24.109     h12.566l6.049-25.667c0.468-2.305,1.005-5.893,1.093-7.73c0.382-7.625-3.346-11.663-10.071-11.663     c-5.753,0-11.351,2.599-15.598,8.075c-0.156-3.951-2.981-8.075-9.983-8.075c-5.668,0-11.076,2.565-15.409,8.371h-0.174     l1.161-6.639h-11.127c-0.73,3.71-1.613,8.199-2.963,13.433l-6.968,29.897h12.48V-581.138z"/>
			</g>
		</g>
		<path id="path3618" fill="#FFFFFF" fill-opacity="0" stroke="#673366" stroke-width="3.2839" d="M493.359,340.942   c0.462,1.188,0.924,2.374,1.404,3.534c0.741,1.576,1.599,3.084,2.628,4.493c5.564,7.562,14.884,11.705,26.716,12.735h12.727   c4.024-0.312,8.241-0.898,12.611-1.754c7.538-1.474,15.527-3.737,23.827-6.765c6.285-2.292,12.745-5.004,19.302-8.155   c14.276-6.845,29.024-15.671,43.495-26.323c4.766-3.506,9.338-7.102,13.728-10.76c4.024-3.348,7.885-6.748,11.572-10.186   c10.291-9.918,18.061-19.99,22.46-28.835c4.582-9.21,5.497-17.085,1.742-22.046c-2.301-3.045-6.151-4.677-11.109-5.062   c22.334-16.759,35.351-37.088,30.681-49.904c-1.481-4.092-4.745-7.144-9.425-8.83c-2.079-0.748-4.419-1.223-6.97-1.438h-6.874   c-9.598,0.692-23.556,4.129-35.396,9.933"/>
		<path id="path3552" fill="#673466" d="M182.255,186.103l-39.592,172.739c0.012,0,104.15,0,104.173,0c45.8,0,183.163,0,183.163,0   h95.264c-11.35-0.99-20.31-4.975-25.647-12.236c-0.99-1.344-1.809-2.791-2.525-4.305c-0.455-1.115-0.884-2.24-1.315-3.379   c-1.139-3.62-1.593-7.638-1.388-11.917c0.569-11.931,6.167-26.12,15.865-40.979c10.302-15.792,25.232-32.343,43.719-47.703   c4.145-3.439,8.429-6.837,12.912-10.138c5.544-4.079,11.131-7.835,16.72-11.348c20.593-12.964,41.134-22.036,59.335-26.645   c-17.394,5.675-36.935,15.309-56.239,28.422c-0.694,0.47-1.38,0.949-2.063,1.424c-10.711,7.422-20.416,15.304-28.885,23.264   c-27.252,25.624-41.655,52.175-35.11,67.729c0.468,1.07,1.023,2.092,1.673,3.06c7.034,10.348,24.47,12.137,46.563,6.581   c1.503-0.376,3.006-0.802,4.554-1.245c7.059-2.037,14.552-4.789,22.27-8.183c1.854-0.818,3.729-1.662,5.62-2.561   c0.192-0.092,0.376-0.184,0.568-0.285c24.36-12.104,43.081-26.03,47.134-34.397c0.889-1.82,1.103-3.372,0.498-4.589   c-2.892-5.862-23.124-1.902-47.632,8.715c-1.97,0.854-3.962,1.731-5.977,2.668c1.64-1.522,3.346-3.05,5.087-4.553   c2.777-2.394,5.653-4.732,8.716-7.044c4.792-3.629,9.637-6.909,14.406-9.817c22.334-16.851,33.625-32.788,31.269-38.703   c-0.442-1.114-1.389-1.881-2.846-2.348c-4.656-1.481-13.153,0.285-23.479,4.518c-8.515,3.493-18.295,8.672-28.21,15.118   l-1.352,0.89l-0.249,0.143l-4.768,3.166l2.739-5.017c4.063-7.438,10.685-15.201,18.925-22.411   c6.045-5.271,12.949-10.238,20.384-14.585c2.812-1.646,5.618-3.175,8.431-4.553c2.88-1.407,5.762-2.658,8.573-3.771   c8.168-3.23,17.143-7.311,23.941-7.845c-0.618,0-20.277,2.117-20.277,2.117h-64.388H308.91H182.255V186.103z M490.65,186.352   c-1.115,17.025,2.186,41.963,9.676,69.65c1.332,4.927,2.781,9.939,4.375,15.012c0.99,3.132,2.013,6.214,3.06,9.249   c-0.614,0.904-1.232,1.802-1.813,2.704c-9.347,14.322-14.809,27.857-16.187,39.627c-3.95-13.228-6.924-27.715-8.607-43.078   c-0.479-4.402-0.853-8.754-1.104-13.055C478.206,235.222,482.283,206.903,490.65,186.352z M304.144,208.513   c0.213-0.005,0.423,0,0.641,0h42.082c3.597,0,6.379,0.674,8.359,2.028c1.97,1.36,2.708,3.123,2.24,5.265l-5.016,22.66h-14.834   l4.873-22.055h-37.137l-13.411,60.614l-4.838,21.948h37.102l0.036-0.143l7.435-33.58h-17.431l1.672-7.577h32.266l-9.249,41.903   c-0.125,0.598-0.346,1.138-0.642,1.673c-0.763,1.389-2.093,2.577-3.947,3.558c-2.572,1.354-5.651,2.028-9.249,2.028h-42.048   c-3.597,0-6.379-0.675-8.358-2.028c-1.969-1.354-2.719-3.085-2.241-5.229l18.534-83.772c0.478-2.142,1.969-3.903,4.553-5.265   c0.091-0.049,0.193-0.061,0.284-0.106C298.179,209.253,300.946,208.588,304.144,208.513z M370.096,208.513   c-0.001,0,52.967,0,52.967,0c3.552,0,6.344,0.674,8.323,2.028c1.992,1.36,2.755,3.123,2.276,5.265l-9.889,44.679   c-0.468,2.129-1.994,3.865-4.589,5.229c-2.597,1.369-5.65,2.062-9.214,2.062h-38.489l-7.436,33.546l-1.21,5.515h-14.514l1.104-4.98   L370.096,208.513z M443.267,208.513h14.515l-16.436,74.24l-3.593,16.221h34.719c0.364,2.663,0.79,5.278,1.245,7.862h-52.221   l4.127-18.642L443.267,208.513z M382.865,216.41l-9.64,43.47h36.177l9.604-43.47H382.865z M305.723,319.006   c0.142-0.005,0.283,0,0.427,0c1.685,0,3.156,0.296,4.34,0.854c1.264,0.592,2.167,1.471,2.668,2.633   c0.489,1.127,0.617,2.406,0.355,3.807l-0.106,0.533h-4.162l0.036-0.497c0.107-0.979-0.014-1.748-0.392-2.277   c-0.05-0.066-0.121-0.153-0.179-0.213c-0.094-0.097-0.234-0.205-0.354-0.285c-0.583-0.367-1.494-0.568-2.668-0.568   c-1.561,0-2.727,0.271-3.522,0.818c-0.772,0.534-1.264,1.132-1.423,1.85c-0.159,0.729,0.104,1.111,0.285,1.315   c0.006,0.006,0.028,0.029,0.035,0.036c0.229,0.196,1.031,0.657,3.521,1.244c2.254,0.547,3.747,1.038,4.589,1.459   c1.275,0.647,2.166,1.489,2.634,2.524c0.467,1.025,0.568,2.226,0.283,3.521c-0.283,1.264-0.929,2.43-1.885,3.521   c-0.945,1.094-2.146,1.958-3.593,2.562c-1.436,0.592-3.009,0.924-4.625,0.924c-2.049,0-3.693-0.31-4.979-0.924   c-1.344-0.639-2.312-1.646-2.882-2.953c-0.546-1.274-0.663-2.722-0.354-4.305l0.105-0.498h4.091l-0.034,0.498   c-0.104,0.944-0.002,1.708,0.249,2.276c0.237,0.547,0.693,0.999,1.423,1.353c0.772,0.376,1.741,0.568,2.846,0.568   c0.99,0,1.896-0.167,2.703-0.462c0.797-0.285,1.431-0.661,1.886-1.139c0.443-0.479,0.704-0.983,0.818-1.529   c0.113-0.49,0.086-0.903-0.107-1.246c-0.216-0.362-0.645-0.688-1.315-0.96l-3.485-1.031c-1.946-0.489-3.257-0.955-4.02-1.423   c-1.036-0.614-1.783-1.402-2.172-2.348c-0.387-0.934-0.428-1.969-0.177-3.096c0.262-1.207,0.843-2.354,1.742-3.379   c0.911-1.036,2.086-1.85,3.486-2.385C303.048,319.324,304.351,319.052,305.723,319.006z M343.074,319.076   c0.225-0.017,0.438,0,0.676,0l2.562,0.285l0.854,0.071c0.001,0-1.244,3.166-1.244,3.166l-0.249,0.498l-1.957-0.18   c-0.576,0-1.002,0.091-1.279,0.285c-0.02,0.015-0.056,0.058-0.071,0.071c-0.037,0.032-0.101,0.09-0.143,0.144   c-0.172,0.225-0.381,0.626-0.533,1.352c0,0-0.074,0.308-0.144,0.569c0.899,0,3.061,0,3.061,0l-0.782,3.521c0,0-2.237,0-2.988,0   c-0.228,1.024-3.023,13.553-3.023,13.553h-4.126c0,0,2.683-12.039,3.022-13.553c-0.693,0-2.383,0-2.383,0l0.782-3.521   c0,0,1.699,0,2.348,0c0.114-0.49,0.285-1.104,0.285-1.104c0.25-1.138,0.512-1.956,0.854-2.525c0.467-0.784,1.125-1.441,1.955-1.921   C341.232,319.391,342.099,319.152,343.074,319.076z M352.929,319.255c0,0-1.079,4.854-1.353,6.083c0.796,0,2.667,0,2.667,0   l-0.782,3.521c0,0-1.962,0-2.668,0c-0.216,0.979-1.921,8.572-1.921,8.572s-0.143,0.912-0.143,1.175c0.001,0.009,0,0.028,0,0.035   c0.001,0.003,0,0.033,0,0.036c0.001,0.002,0.034-0.002,0.036,0l0.427,0.035l1.956-0.144l-0.213,3.166l0.035,0.569l-2.812,0.319   c-1.115,0-1.934-0.183-2.525-0.568c-0.626-0.41-0.989-0.953-1.138-1.637c-0.022-0.125-0.071-0.308-0.071-0.568   c0-0.513,0.098-1.379,0.428-2.882c0,0,1.495-6.698,1.812-8.11c-0.534,0-1.956,0-1.956,0l0.782-3.521c0,0,1.388,0,1.957,0   c0.183-0.82,0.818-3.629,0.818-3.629l3.309-1.743L352.929,319.255z M221.843,319.396h16.009l-0.891,3.984c0,0-10.679,0-11.703,0   c-0.183,0.809-0.911,4.081-1.174,5.266c1.479,0,10.139,0,10.139,0l-0.891,3.983c0,0-9.113,0-10.138,0   c-0.216,0.989-2.17,9.781-2.17,9.781h-4.304L221.843,319.396z M243.293,325.018c0.16-0.021,0.336,0,0.498,0   c1.024,0,1.972,0.312,2.881,0.961l0.569,0.391l-2.205,3.629l-0.604-0.428c-0.444-0.284-0.924-0.426-1.425-0.426   c-0.432,0-0.835,0.153-1.243,0.426c-0.434,0.285-0.796,0.662-1.067,1.174c-0.479,0.877-0.828,1.858-1.067,2.918l-1.921,8.75h-4.126   l3.807-17.073h3.842c0,0-0.132,0.518-0.179,0.711c0.184-0.138,0.374-0.324,0.534-0.428   C242.138,325.293,242.719,325.088,243.293,325.018z M255.529,325.018c0.249-0.021,0.493,0,0.748,0c2.321,0,4.079,0.812,5.229,2.419   c0.718,1.036,1.104,2.316,1.104,3.842c0,0.843-0.104,1.749-0.319,2.739l-0.319,1.244c0,0-10.437,0-11.598,0   c-0.022,0.24-0.036,0.496-0.036,0.712c0,0.888,0.184,1.587,0.569,2.099c0.184,0.251,0.397,0.478,0.641,0.642   c0.458,0.299,1.051,0.463,1.743,0.463c0.842,0,1.582-0.232,2.276-0.676c0.66-0.423,1.292-1.096,1.85-2.028h4.411l-0.392,0.854   c-0.843,1.708-2.019,3.04-3.485,3.984c-1.469,0.944-3.224,1.458-5.158,1.458c-2.516,0-4.389-0.813-5.55-2.418   c-1.148-1.571-1.396-3.742-0.782-6.475c0.614-2.777,1.842-4.997,3.628-6.546C251.689,325.94,253.507,325.17,255.529,325.018z    M274.064,325.018c0.248-0.021,0.493,0,0.747,0c2.321,0,4.079,0.812,5.229,2.419c0.718,1.036,1.104,2.316,1.104,3.842   c0,0.831-0.104,1.726-0.319,2.703l-0.32,1.28c0,0-10.436,0-11.597,0c-0.012,0.16-0.024,0.304-0.036,0.463   c-0.008,0.06,0.004,0.15,0,0.213c0,0.011,0,0.026,0,0.036c0,0.171,0.024,0.339,0.036,0.498c0.057,0.648,0.226,1.19,0.533,1.601   c0.059,0.08,0.114,0.179,0.178,0.25c0.521,0.558,1.26,0.854,2.206,0.854c0.842,0,1.594-0.232,2.276-0.676   c0.659-0.423,1.292-1.096,1.85-2.028h4.446l-0.428,0.854c-0.842,1.708-2.018,3.04-3.484,3.984   c-1.469,0.944-3.225,1.458-5.158,1.458c-2.516,0-4.389-0.812-5.55-2.418c-0.751-1.025-1.104-2.33-1.104-3.878   c0-0.239,0.014-0.497,0.036-0.747c0.045-0.592,0.137-1.189,0.284-1.85c0.614-2.767,1.806-4.997,3.593-6.546   C270.187,325.94,272.04,325.17,274.064,325.018z M324.54,325.018c0.255-0.021,0.488,0,0.747,0c2.368,0,4.188,0.801,5.372,2.383   c1.173,1.582,1.457,3.717,0.854,6.403c-0.468,2.095-1.143,3.786-2.063,5.017c-0.922,1.229-2.097,2.233-3.486,2.916   c-1.377,0.685-2.835,1.031-4.304,1.031c-2.413,0-4.21-0.824-5.372-2.418c-0.751-1.014-1.138-2.318-1.138-3.878   c0-0.843,0.093-1.737,0.32-2.739c0.683-3.051,2.076-5.374,4.126-6.865C321.1,325.781,322.761,325.154,324.54,325.018z    M387.041,325.018c0.301-0.02,0.578,0,0.891,0c1.435,0,2.562,0.145,3.415,0.498c0.909,0.364,1.557,0.879,1.921,1.494   c0.353,0.58,0.532,1.293,0.532,2.17l-0.427,2.597l-0.782,3.521c-0.672,3.005-0.818,4.132-0.854,4.554   c-0.034,0.568,0.019,1.123,0.178,1.636l0.284,0.925h-4.197l-0.178-0.532c-0.068-0.25-0.049-0.569-0.071-0.854   c-0.797,0.489-1.595,0.924-2.312,1.174c-1.06,0.364-2.157,0.568-3.272,0.568c-1.935,0-3.368-0.503-4.232-1.493   c-0.66-0.729-0.96-1.62-0.96-2.633c0-0.387,0.051-0.788,0.143-1.21c0.193-0.864,0.545-1.666,1.104-2.383   c0.546-0.705,1.191-1.286,1.921-1.707c0.705-0.422,1.491-0.722,2.312-0.927l2.525-0.426c1.945-0.229,3.398-0.512,4.445-0.817   c0.022-0.114,0.071-0.25,0.071-0.25c0.165-0.731,0.146-1.282-0.036-1.564c-0.013-0.018-0.056-0.056-0.07-0.071   c-0.038-0.041-0.098-0.104-0.143-0.142c-0.429-0.34-1.158-0.498-2.135-0.498c-1.104,0-1.921,0.18-2.489,0.533   c-0.559,0.353-1.075,0.998-1.53,1.921h-4.304l0.392-0.854c0.513-1.184,1.122-2.165,1.886-2.916   c0.763-0.752,1.793-1.334,2.987-1.743C384.969,325.284,385.971,325.084,387.041,325.018z M405.076,325.018   c0.161-0.021,0.337,0,0.498,0c1.036,0,2.007,0.312,2.918,0.961l0.533,0.391l-2.206,3.629l-0.604-0.428   c-0.442-0.284-0.896-0.426-1.387-0.426c-0.433,0-0.86,0.153-1.281,0.426c-0.433,0.285-0.747,0.662-1.03,1.174   c-0.468,0.877-0.828,1.858-1.067,2.918l-1.956,8.75h-4.127l3.807-17.073h3.843c0,0-0.098,0.518-0.144,0.711   c0.184-0.138,0.363-0.324,0.534-0.428C403.947,325.293,404.503,325.088,405.076,325.018z M417.278,325.018   c0.248-0.021,0.493,0,0.747,0c2.322,0,4.091,0.812,5.229,2.419c0.729,1.036,1.104,2.316,1.104,3.842   c0,0.843-0.141,1.749-0.356,2.739l-0.284,1.244c0,0-10.446,0-11.597,0c-0.021,0.24-0.071,0.496-0.071,0.712   c0,0.888,0.193,1.587,0.569,2.099c0.06,0.08,0.148,0.179,0.214,0.25c0.037,0.039,0.104,0.104,0.143,0.143   c0.509,0.463,1.201,0.712,2.062,0.712c0.842,0,1.582-0.232,2.276-0.676c0.66-0.423,1.279-1.096,1.85-2.028h4.447l-0.428,0.854   c-0.843,1.708-2.028,3.04-3.485,3.984c-1.48,0.944-3.212,1.458-5.158,1.458c-2.516,0-4.353-0.813-5.514-2.418   c-1.149-1.571-1.422-3.742-0.818-6.475c0.615-2.777,1.807-4.997,3.593-6.546C413.412,325.94,415.257,325.17,417.278,325.018z    M354.99,325.338h4.233c0,0,0.521,10.133,0.533,10.279c0.17-0.361,0.304-0.668,0.319-0.712l4.66-9.567h3.878   c0,0,0.354,10.01,0.354,10.065c0.113-0.205,5.301-10.065,5.301-10.065h4.197l-9.249,17.073h-3.807c0,0-0.368-9.258-0.391-9.781   c-1.571,3.222-4.769,9.781-4.769,9.781h-3.913L354.99,325.338z M255.601,328.574c-0.98,0.042-1.871,0.396-2.703,1.067   c-0.66,0.523-1.105,1.243-1.458,2.028h7.008c0.011-0.125,0.035-0.277,0.035-0.393c0-0.648-0.115-1.153-0.32-1.494   c-0.501-0.818-1.243-1.21-2.348-1.21C255.748,328.574,255.666,328.572,255.601,328.574z M274.134,328.574   c-0.979,0.042-1.869,0.396-2.702,1.067c-0.66,0.523-1.095,1.243-1.458,2.028h7.008c0.011-0.125,0.035-0.277,0.035-0.393   c0-0.648-0.104-1.153-0.32-1.494c-0.1-0.167-0.233-0.332-0.355-0.462c-0.476-0.492-1.13-0.748-1.991-0.748   C274.281,328.574,274.199,328.572,274.134,328.574z M417.491,328.574c-1.008,0.031-1.95,0.373-2.81,1.067   c-0.649,0.523-1.096,1.243-1.459,2.028h6.973c0.011-0.125,0.035-0.277,0.035-0.393c0-0.648-0.104-1.153-0.32-1.494   c-0.489-0.808-1.243-1.197-2.348-1.21C417.53,328.575,417.524,328.574,417.491,328.574z M324.291,328.646   c-0.939,0.111-1.814,0.541-2.632,1.279c-0.979,0.889-1.688,2.282-2.099,4.127c-0.171,0.773-0.249,1.436-0.249,2.026   c0,0.81,0.154,1.443,0.462,1.923c0.082,0.121,0.189,0.252,0.285,0.354c0.506,0.537,1.213,0.818,2.099,0.818   c1.149,0,2.163-0.43,3.13-1.316c0.979-0.898,1.678-2.309,2.101-4.197c0.387-1.729,0.332-3.021-0.215-3.842   c-0.522-0.797-1.289-1.174-2.348-1.174C324.646,328.646,324.466,328.625,324.291,328.646z M388.571,334.87   c-0.968,0.263-2.052,0.482-3.486,0.677c-1.069,0.158-1.833,0.326-2.275,0.498c-0.389,0.158-0.699,0.38-0.961,0.676   c-0.25,0.285-0.418,0.584-0.498,0.925c-0.022,0.137-0.035,0.277-0.035,0.392c0,0.011,0,0.026,0,0.035   c0.001,0.027-0.003,0.081,0,0.107c0.007,0.051,0.021,0.129,0.035,0.178c0.005,0.016,0.029,0.056,0.036,0.07   c0.012,0.031,0.02,0.078,0.034,0.106c0.018,0.028,0.053,0.079,0.071,0.106c0.029,0.041,0.07,0.104,0.106,0.143   c0.284,0.318,0.853,0.462,1.672,0.462c0.898,0,1.765-0.17,2.562-0.567c0.785-0.389,1.419-0.965,1.886-1.638   C388.059,336.562,388.332,335.826,388.571,334.87z M171.289,306.35l95.469-98.571h15.592l-23.053,98.571h-12.822l6.546-28.375   h-40.022L185.8,306.35H171.289 M222.723,267.822h32.732l6.039-24.743c2.438-9.816,4.784-17.997,7.039-24.542   c-4.507,5.647-10.469,12.349-17.887,20.104L222.723,267.822"/>
	</g>
</svg>
